<?xml version="1.0" encoding="UTF-8" standalone="no"?>
<svg
   id="Layer_2"
   data-name="Layer 2"
   viewBox="0 0 998.53003 256.88"
   version="1.1"
   sodipodi:docname="banner.svg"
   inkscape:version="1.2.2 (b0a84865, 2022-12-01)"
   width="998.53003"
   height="256.88"
   xmlns:inkscape="http://www.inkscape.org/namespaces/inkscape"
   xmlns:sodipodi="http://sodipodi.sourceforge.net/DTD/sodipodi-0.dtd"
   xmlns:xlink="http://www.w3.org/1999/xlink"
   xmlns="http://www.w3.org/2000/svg"
   xmlns:svg="http://www.w3.org/2000/svg">
  <sodipodi:namedview
     id="namedview1191"
     pagecolor="#ffffff"
     bordercolor="#000000"
     borderopacity="0.25"
     inkscape:showpageshadow="2"
     inkscape:pageopacity="0.0"
     inkscape:pagecheckerboard="0"
     inkscape:deskcolor="#d1d1d1"
     showgrid="false"
     inkscape:zoom="1.2409617"
     inkscape:cx="503.23874"
     inkscape:cy="136.58762"
     inkscape:window-width="2560"
     inkscape:window-height="1387"
     inkscape:window-x="0"
     inkscape:window-y="25"
     inkscape:window-maximized="0"
     inkscape:current-layer="Layer_2" />
  <defs
     id="defs1155">
    <style
       id="style1146">
      .cls-1 {
        fill: #008cff;
        font-family: ITCAvantGardeStd-Md, 'ITC Avant Garde Gothic Std';
        font-weight: 500;
      }

      .cls-2 {
        fill: url(#linear-gradient);
      }

      .cls-3, .cls-4 {
        fill: #fff;
      }

      .cls-5 {
        font-size: 52.96px;
        letter-spacing: .04em;
      }

      .cls-6 {
        fill: url(#linear-gradient-3);
      }

      .cls-7 {
        fill: url(#linear-gradient-2);
      }

      .cls-4 {
        font-family: ITCAvantGardeStd-Bk, 'ITC Avant Garde Gothic Std';
      }
    </style>
    <linearGradient
       id="linear-gradient"
       x1="243.42999"
       y1="-106.39"
       x2="83.839996"
       y2="134.44"
       gradientUnits="userSpaceOnUse">
      <stop
         offset="0"
         stop-color="#00f5b6"
         id="stop1148" />
      <stop
         offset="1"
         stop-color="#008cff"
         id="stop1150" />
    </linearGradient>
    <linearGradient
       id="linear-gradient-2"
       x1="324.89999"
       y1="-43.34"
       x2="162.47"
       y2="93.220001"
       xlink:href="#linear-gradient" />
    <linearGradient
       id="linear-gradient-3"
       x1="287.16"
       y1="-21.66"
       x2="181.59"
       y2="67.089996"
       gradientTransform="rotate(0.17,-2732.5237,556.79037)"
       xlink:href="#linear-gradient" />
    <linearGradient
       inkscape:collect="always"
       xlink:href="#linear-gradient"
       id="linearGradient4383"
       gradientUnits="userSpaceOnUse"
       x1="243.42999"
       y1="-106.39"
       x2="83.839996"
       y2="134.44" />
  </defs>
  <g
     id="Layer_1-2"
     data-name="Layer 1">
    <g
       id="g1179">
      <path
         class="cls-3"
         d="m 550.88,173.33 h -38.85 v -70.67 c 0,-18.09 -6.94,-27.14 -20.83,-27.14 -13.89,0 -21.76,8.58 -21.76,25.74 v 72.07 H 430.59 V 0.17 h 38.85 v 55.22 h 0.47 c 6.08,-10.92 17.24,-16.38 33.46,-16.38 16.22,0 27.22,4.76 35.33,14.27 3.9,4.53 6.79,9.67 8.66,15.44 1.87,5.77 2.92,10.57 3.16,14.39 0.23,3.82 0.35,9.71 0.35,17.67 v 72.54 z"
         id="path1165" />
      <path
         class="cls-3"
         d="m 708.13,109.92 c 0,3.74 -0.31,7.18 -0.94,10.3 h -97.35 c 1.09,7.49 4.48,13.46 10.18,17.9 5.69,4.45 12.44,6.67 20.24,6.67 9.36,0 17.24,-4.06 23.63,-12.17 h 39.78 c -5.77,13.42 -14.24,24.26 -25.39,32.53 -11.16,8.27 -23.83,12.4 -38.03,12.4 -19.04,0 -35.26,-6.7 -48.67,-20.12 -13.42,-13.42 -20.12,-29.64 -20.12,-48.67 0,-19.03 6.63,-35.41 19.89,-49.14 13.26,-13.73 29.33,-20.59 48.21,-20.59 18.88,0 36,6.87 49.03,20.59 13.02,13.73 19.54,30.5 19.54,50.31 z M 669.28,94.01 c -1.56,-6.86 -5.07,-12.29 -10.53,-16.26 -5.46,-3.98 -11.78,-5.97 -18.95,-5.97 -7.17,0 -13.5,1.99 -18.96,5.97 -5.46,3.98 -8.97,9.4 -10.53,16.26 z"
         id="path1167" />
      <path
         class="cls-3"
         d="m 849.94,173.33 h -38.85 v -70.9 c 0,-8.58 -1.4,-15.21 -4.21,-19.89 -2.81,-4.68 -8.19,-7.02 -16.15,-7.02 -8.42,0 -14.24,2.38 -17.43,7.14 -3.2,4.76 -4.8,11.43 -4.8,20.01 v 70.67 H 729.65 V 43.46 h 36.27 v 13.81 h 0.47 c 7.49,-12.17 19.27,-18.25 35.34,-18.25 5.62,0 11.54,1.02 17.78,3.04 6.24,2.03 11.39,4.76 15.44,8.19 9.98,8.27 14.98,22.23 14.98,41.89 v 81.2 z"
         id="path1169" />
      <path
         class="cls-3"
         d="M 942.84,72.94 H 924.12 V 173.33 H 885.27 V 72.94 H 866.08 V 43.45 h 19.19 V 0.17 h 38.85 v 43.29 h 18.72 v 29.49 z"
         id="path1171" />
      <path
         class="cls-3"
         d="M 409.8,72.94 H 391.08 V 173.33 H 352.23 V 72.94 H 333.04 V 43.45 h 19.19 V 0.17 h 38.85 v 43.29 h 18.72 v 29.49 z"
         id="path1173" />
      <path
         class="cls-3"
         d="M 998.53,173.33 H 959.68 V 43.46 h 38.85 v 129.88 z"
         id="path1175" />
      <path
         class="cls-3"
         d="M 998.53,34.96 H 959.68 V 0.77 h 38.85 z"
         id="path1177" />
    </g>
    <path
       class="cls-2"
       d="M 0,0 V 45.12 C 0,68.6 19.03,87.63 42.51,87.63 h 2.47 c 24.05,0 43.54,19.5 43.54,43.54 v 124.35 c 0,0.75 0.61,1.36 1.36,1.36 h 85.01 c 0.75,0 1.36,-0.61 1.36,-1.36 V 43.09 C 176.26,19.29 156.97,0 133.17,0 Z"
       id="path1181"
       style="fill:url(#linearGradient4383)" />
    <path
       class="cls-7"
       d="m 221.48,0.24 c -23.91,0 -43.37,19.46 -43.37,43.37 0,23.91 19.46,43.37 43.37,43.37 23.91,0 43.37,-19.46 43.37,-43.37 0,-23.91 -19.46,-43.37 -43.37,-43.37 z m 0,72.41 c -16.02,0 -29.04,-13.02 -29.04,-29.04 0,-16.02 13.02,-29.04 29.04,-29.04 16.02,0 29.04,13.02 29.04,29.04 0,16.02 -13.02,29.04 -29.04,29.04 z"
       id="path1183"
       style="fill:url(#linear-gradient-2)" />
    <path
       class="cls-6"
       d="m 221.54,23.67 c -11,-0.03 -19.96,8.88 -20,19.88 -0.03,11 8.88,19.96 19.88,20 11,0.03 19.96,-8.88 20,-19.88 0.03,-11 -8.88,-19.96 -19.88,-20 z"
       id="path1185"
       style="fill:url(#linear-gradient-3)" />
    <path
       class="cls-3"
       d="m 232.63,43.15 h 5.18 C 237.58,34.79 231.07,28 222.82,27.32 v 5.2 c 5.39,0.65 9.59,5.13 9.81,10.63 z"
       id="path1187" />
  </g>
</svg>
